<svg xmlns="http://www.w3.org/2000/svg" viewBox="0 0 1159.78 291.32"><defs><style>.cls-1{fill:#4e768d;}.cls-2{fill:#f2f2f2;}.cls-3{fill:#fff;}.cls-4{fill:#f87b7c;}.cls-5,.cls-6,.cls-7,.cls-8{fill:none;stroke-miterlimit:10;}.cls-5,.cls-6{stroke:#fff;}.cls-5{stroke-width:0.5px;}.cls-6{stroke-width:0.75px;}.cls-7{stroke:#4e768d;}.cls-8{stroke:#f87b7c;}.cls-9{fill:#7a98a9;}</style></defs><title>Asset 2</title><g id="Layer_2" data-name="Layer 2"><g id="Layer_1-2" data-name="Layer 1"><rect class="cls-1" x="867.83" y="161.04" width="87.17" height="87.17"/><path class="cls-2" d="M929.76,208.27q0,11-6.24,16.78t-17.42,5.79H892.73v-45h12.49a35.31,35.31,0,0,1,10.08,1.33,21.77,21.77,0,0,1,7.72,4,17.18,17.18,0,0,1,5,7A27.06,27.06,0,0,1,929.76,208.27Zm-5.63.15q0-9.44-4.87-13.74t-14.19-4.29H898v35.84h7.95q8.89,0,13.54-4.49T924.13,208.42Z"/><rect class="cls-1" x="962" y="160.98" width="87.17" height="87.17"/><path class="cls-2" d="M989.12,229.89v-45h25.83l-.21,4.66H994.39v14.74h19.34v4.6H994.39v16.38h21l-.24,4.66Z"/><rect class="cls-1" x="1056.68" y="161.48" width="86.17" height="86.17"/><path class="cls-3" d="M1142.35,162v85.17h-85.17V162h85.17m1-1h-87.17v87.17h87.17V161Z"/><path class="cls-2" d="M1094.33,230.81h-5.27v-45h25l-.21,4.66h-19.52v15.81h18.61v4.48h-18.61Z"/><rect class="cls-1" x="868.33" y="59.21" width="86.17" height="86.17"/><path class="cls-3" d="M954,59.71v85.17H868.83V59.71H954m1-1H867.83v87.17H955V58.71Z"/><path class="cls-2" d="M924.29,127.59,919,113.3h-18l-5.45,14.28h-5.36l17.3-45.13h5.39l16.78,45.13Zm-7-18.7q-6.43-18.67-7.1-21l-7.4,21Z"/><rect class="cls-1" x="962" y="58.76" width="87.17" height="87.17"/><path class="cls-2" d="M986.64,83.36h12.91q8.68,0,12.87,2.65t4.19,8.44a13.3,13.3,0,0,1-.11,1.69,11.68,11.68,0,0,1-.55,2.15,9.31,9.31,0,0,1-1.2,2.39,9.75,9.75,0,0,1-2.24,2.16,12.09,12.09,0,0,1-3.46,1.72,10.94,10.94,0,0,1,6.88,3.84,11.28,11.28,0,0,1,2.34,7.19q0,6.12-4,9.47t-11.92,3.35H986.64Zm5.27,19.37h9.65q4.72,0,7.13-1.64t2.41-5.85q0-4.23-2.88-5.83t-8.94-1.6h-7.37Zm0,4.23v17.12h9.41q5.73,0,8.59-2.12t2.86-6.59q0-4.66-3.09-6.53T1000,107Z"/><rect class="cls-1" x="1056.18" y="58.66" width="87.17" height="87.17"/><path class="cls-2" d="M1106.92,86.41a15.32,15.32,0,0,0-8.75,2.47,14.92,14.92,0,0,0-5.47,6.64,24.07,24.07,0,0,0-1.8,9.59,26.24,26.24,0,0,0,1,7.38,17.39,17.39,0,0,0,2.92,5.85,12.91,12.91,0,0,0,5.07,3.9,17.52,17.52,0,0,0,7.17,1.38,24.57,24.57,0,0,0,10.78-2.71l.88,4.48q-4.54,2.86-12.27,2.86a23.41,23.41,0,0,1-9.12-1.69,17.46,17.46,0,0,1-6.67-4.78,21.16,21.16,0,0,1-4-7.37,31.07,31.07,0,0,1-1.37-9.52,28,28,0,0,1,1.49-9.32,21.55,21.55,0,0,1,4.22-7.32,18.53,18.53,0,0,1,6.81-4.77,25.64,25.64,0,0,1,21.87,1.64l-2.07,4.29A20.29,20.29,0,0,0,1106.92,86.41Z"/><path class="cls-4" d="M740.94,81.23V71.06h1l.16,1.57a3.8,3.8,0,0,1,1.47-1.29,4.33,4.33,0,0,1,2-.47,3.21,3.21,0,0,1,2.58,1,4.69,4.69,0,0,1,.83,3.08v6.31h-1.16V74.4a3.06,3.06,0,0,0-.57-1.95,2.22,2.22,0,0,0-1.74-.59,3.52,3.52,0,0,0-2.26.7,3,3,0,0,0-1.1,1.8c0,.29,0,.59,0,.91v6Z"/><path class="cls-4" d="M756.51,81.45A4.22,4.22,0,0,1,753.17,80a5.58,5.58,0,0,1-1.24-3.82,5.84,5.84,0,0,1,1.21-3.81,4,4,0,0,1,3.13-1.53,3.58,3.58,0,0,1,2.88,1.28,5.13,5.13,0,0,1,1.09,3.43c0,.06,0,.17,0,.34s0,.29,0,.36h-7.08a4.87,4.87,0,0,0,.95,3.1,3,3,0,0,0,2.45,1.15,5.75,5.75,0,0,0,1.73-.23,9,9,0,0,0,1.53-.66l.19.86A6.51,6.51,0,0,1,756.51,81.45Zm-3.32-6.1H759a4,4,0,0,0-.73-2.6,2.45,2.45,0,0,0-2-.9,2.59,2.59,0,0,0-2.1,1A4.56,4.56,0,0,0,753.19,75.35Z"/><path class="cls-4" d="M766.26,81.46a6.78,6.78,0,0,1-1.85-.24,4.8,4.8,0,0,1-1.36-.57l.17-1a6.36,6.36,0,0,0,2.93.8q2.52,0,2.61-1.86a1.55,1.55,0,0,0-.51-1.22,6.13,6.13,0,0,0-2-.93l-.88-.31q-2.38-.72-2.4-2.57a2.45,2.45,0,0,1,.94-1.89,3.73,3.73,0,0,1,2.55-.82,7.31,7.31,0,0,1,3,.63l-.39.85a7.59,7.59,0,0,0-2.65-.54,2.68,2.68,0,0,0-1.69.48,1.56,1.56,0,0,0-.62,1.3,1.35,1.35,0,0,0,.4,1.05,4.25,4.25,0,0,0,1.6.7l.48.17.38.14a5.22,5.22,0,0,1,2.24,1.16,2.56,2.56,0,0,1,.64,1.83,2.52,2.52,0,0,1-1,2.07A4.17,4.17,0,0,1,766.26,81.46Z"/><path class="cls-4" d="M775.68,81.44a2.61,2.61,0,0,1-1.87-.58,2.56,2.56,0,0,1-.59-1.89V71.9h-1.44l.08-.7,1.37-.13.31-2.33.81-.05v2.37h3v.84h-3v6.83a2.14,2.14,0,0,0,.35,1.44,1.69,1.69,0,0,0,1.24.37,6.09,6.09,0,0,0,1.43-.21l0,.89A9.6,9.6,0,0,1,775.68,81.44Z"/><path class="cls-4" d="M784,81.45A4.22,4.22,0,0,1,780.62,80a5.58,5.58,0,0,1-1.24-3.82,5.84,5.84,0,0,1,1.21-3.81,4,4,0,0,1,3.13-1.53,3.58,3.58,0,0,1,2.88,1.28,5.13,5.13,0,0,1,1.09,3.43c0,.06,0,.17,0,.34s0,.29,0,.36h-7.08a4.87,4.87,0,0,0,.95,3.1A3,3,0,0,0,784,80.53a5.75,5.75,0,0,0,1.73-.23,9,9,0,0,0,1.53-.66l.19.86A6.51,6.51,0,0,1,784,81.45Zm-3.32-6.1h5.79a4,4,0,0,0-.73-2.6,2.45,2.45,0,0,0-2-.9,2.59,2.59,0,0,0-2.1,1A4.56,4.56,0,0,0,780.64,75.35Z"/><path class="cls-4" d="M794.58,81.44A3.84,3.84,0,0,1,791.41,80a6,6,0,0,1-1.14-3.9,5.88,5.88,0,0,1,1.17-3.8,3.78,3.78,0,0,1,3.09-1.46,4.76,4.76,0,0,1,1.89.41,3,3,0,0,1,1.44,1.27V67.12L799,67V81.23h-1l-.17-1.53a3.38,3.38,0,0,1-1.43,1.3A4.19,4.19,0,0,1,794.58,81.44Zm0-.91a3.42,3.42,0,0,0,1.51-.32,2.58,2.58,0,0,0,1-.89,4.15,4.15,0,0,0,.58-1.32,6.71,6.71,0,0,0,.19-1.66q0-4.54-3.34-4.54a2.58,2.58,0,0,0-1.39.38,2.71,2.71,0,0,0-1,1,5.27,5.27,0,0,0-.51,1.38,7.19,7.19,0,0,0-.17,1.57,8.28,8.28,0,0,0,.1,1.34,5.37,5.37,0,0,0,.33,1.19,3.58,3.58,0,0,0,.57,1,2.45,2.45,0,0,0,.86.64A2.78,2.78,0,0,0,794.56,80.53Z"/><path class="cls-4" d="M745.39,104.25a3.46,3.46,0,0,1-2.3-.72,2.55,2.55,0,0,1-.86-2.07,2.71,2.71,0,0,1,.34-1.39,2.58,2.58,0,0,1,1-1,5.84,5.84,0,0,1,1.49-.57,12.22,12.22,0,0,1,2-.29l1.76-.12V97a2.54,2.54,0,0,0-.53-1.76,2.21,2.21,0,0,0-1.71-.59,6.16,6.16,0,0,0-3,.77l-.17-.4c-.09-.21-.15-.37-.19-.48a5.44,5.44,0,0,1,1.5-.62,7,7,0,0,1,1.82-.25,3.66,3.66,0,0,1,2.63.78,3.84,3.84,0,0,1,.8,2.78V104H749q0-.21-.13-.84c-.06-.42-.09-.64-.09-.65A3.89,3.89,0,0,1,745.39,104.25Zm0-.92a3.4,3.4,0,0,0,2.11-.7,3.27,3.27,0,0,0,1.21-1.94V99l-1.34.11a7.87,7.87,0,0,0-3.15.74,1.81,1.81,0,0,0-.88,1.67,1.7,1.7,0,0,0,.56,1.39A2.27,2.27,0,0,0,745.43,103.33Z"/><path class="cls-4" d="M753.44,104q0-9,0-10.17h.95l.07,2a4.68,4.68,0,0,1,1.39-1.48,3.08,3.08,0,0,1,1.76-.58,5.36,5.36,0,0,1,.82.07l-.08,1a4.29,4.29,0,0,0-.71-.06,2.75,2.75,0,0,0-2.17,1,3.57,3.57,0,0,0-.88,2.41V104Z"/><path class="cls-4" d="M760.83,104q0-9,0-10.17h.95l.07,2a4.68,4.68,0,0,1,1.39-1.48A3.08,3.08,0,0,1,765,93.8a5.36,5.36,0,0,1,.82.07l-.08,1a4.29,4.29,0,0,0-.71-.06,2.75,2.75,0,0,0-2.17,1,3.57,3.57,0,0,0-.88,2.41V104Z"/><path class="cls-4" d="M770.81,104.25a3.46,3.46,0,0,1-2.3-.72,2.55,2.55,0,0,1-.86-2.07,2.71,2.71,0,0,1,.34-1.39,2.58,2.58,0,0,1,1-1,5.84,5.84,0,0,1,1.49-.57,12.22,12.22,0,0,1,2-.29l1.76-.12V97a2.54,2.54,0,0,0-.53-1.76,2.21,2.21,0,0,0-1.71-.59,6.16,6.16,0,0,0-3,.77l-.17-.4c-.09-.21-.15-.37-.19-.48a5.44,5.44,0,0,1,1.5-.62,7,7,0,0,1,1.82-.25,3.66,3.66,0,0,1,2.63.78,3.84,3.84,0,0,1,.8,2.78V104h-.9q0-.21-.13-.84c-.06-.42-.09-.64-.09-.65A3.89,3.89,0,0,1,770.81,104.25Zm0-.92a3.4,3.4,0,0,0,2.11-.7,3.27,3.27,0,0,0,1.21-1.94V99l-1.34.11a7.87,7.87,0,0,0-3.15.74,1.81,1.81,0,0,0-.88,1.67,1.7,1.7,0,0,0,.56,1.39A2.27,2.27,0,0,0,770.85,103.33Z"/><path class="cls-4" d="M778.39,108.85a4.35,4.35,0,0,1-.79-.07l-.08-.95h.27l.37,0a3.13,3.13,0,0,0,1.75-.4,3.3,3.3,0,0,0,1-1.56l.29-.8.37-1-4.06-10.23h1.21l3.46,9.15.42-1.28q2.55-8,2.62-8s0,0,0,.09h1.21l-4.25,11.95a6.09,6.09,0,0,1-1.5,2.29A3.37,3.37,0,0,1,778.39,108.85Z"/><path class="cls-4" d="M800.1,103.72a3.9,3.9,0,0,1-2,.53,3.84,3.84,0,0,1-3.5-2,7.91,7.91,0,0,1-.83-2.29,14.66,14.66,0,0,1-.27-3,10.2,10.2,0,0,1,1.18-5.38,4,4,0,0,1,6.82,0,10.34,10.34,0,0,1,1.17,5.39,14.89,14.89,0,0,1-.27,3,7.94,7.94,0,0,1-.82,2.29A4,4,0,0,1,800.1,103.72Zm-2.06-.54a2.6,2.6,0,0,0,2.29-1.7,10.11,10.11,0,0,0,.87-4.58,9.78,9.78,0,0,0-.87-4.5,2.4,2.4,0,0,0-4.57,0,9.76,9.76,0,0,0-.86,4.51,10.09,10.09,0,0,0,.87,4.57A2.58,2.58,0,0,0,798,103.18Z"/><path class="cls-3" d="M874.46,14.58a4.23,4.23,0,0,1-3.34-1.41,5.59,5.59,0,0,1-1.24-3.82,5.84,5.84,0,0,1,1.21-3.81A4,4,0,0,1,874.22,4a3.58,3.58,0,0,1,2.88,1.28,5.13,5.13,0,0,1,1.09,3.43c0,.05,0,.17,0,.34s0,.29,0,.36h-7.08a4.87,4.87,0,0,0,.95,3.1,3,3,0,0,0,2.45,1.15,5.75,5.75,0,0,0,1.73-.23,9.16,9.16,0,0,0,1.53-.66l.19.86A6.51,6.51,0,0,1,874.46,14.58Zm-3.32-6.1h5.79a4,4,0,0,0-.73-2.6,2.45,2.45,0,0,0-2-.9,2.59,2.59,0,0,0-2.1,1A4.56,4.56,0,0,0,871.14,8.49Z"/><path class="cls-3" d="M883.8,14.57a2.6,2.6,0,0,1-1.87-.58,2.55,2.55,0,0,1-.59-1.89V.24l1.13-.09V12a1.86,1.86,0,0,0,.34,1.28,1.36,1.36,0,0,0,1,.35,5.8,5.8,0,0,0,1.39-.21l0,.89A6.5,6.5,0,0,1,883.8,14.57Z"/><path class="cls-3" d="M891.51,14.58a4.23,4.23,0,0,1-3.34-1.41,5.59,5.59,0,0,1-1.24-3.82,5.84,5.84,0,0,1,1.21-3.81A4,4,0,0,1,891.27,4a3.58,3.58,0,0,1,2.88,1.28,5.13,5.13,0,0,1,1.09,3.43c0,.05,0,.17,0,.34s0,.29,0,.36h-7.08a4.87,4.87,0,0,0,.95,3.1,3,3,0,0,0,2.45,1.15,5.75,5.75,0,0,0,1.73-.23,9.16,9.16,0,0,0,1.53-.66l.19.86A6.51,6.51,0,0,1,891.51,14.58Zm-3.32-6.1H894a4,4,0,0,0-.73-2.6,2.45,2.45,0,0,0-2-.9,2.59,2.59,0,0,0-2.1,1A4.56,4.56,0,0,0,888.19,8.49Z"/><path class="cls-3" d="M898.32,14.36q0-9.22,0-10.17h1l.15,1.56a3.4,3.4,0,0,1,1.33-1.25A3.81,3.81,0,0,1,902.65,4a2.83,2.83,0,0,1,3.06,1.92A3.66,3.66,0,0,1,909.14,4a3,3,0,0,1,2.45,1,4.37,4.37,0,0,1,.78,2.83v6.57h-1.15v-5q0-.71,0-1.18t-.09-1a3.62,3.62,0,0,0-.21-.91,3.09,3.09,0,0,0-.38-.67,1.37,1.37,0,0,0-.59-.46,2.26,2.26,0,0,0-.85-.15,3,3,0,0,0-2,.69A3.63,3.63,0,0,0,906,7.63q0,.95,0,1.47v5.27h-1.14V9.18q0-.79,0-1.37a7,7,0,0,0-.19-1.14,2.89,2.89,0,0,0-.38-.91,1.73,1.73,0,0,0-.63-.56A2,2,0,0,0,902.7,5a3.29,3.29,0,0,0-2.11.67,3.08,3.08,0,0,0-1.1,1.83c0,.25,0,.62,0,1.09v5.78Z"/><path class="cls-3" d="M919.92,14.58a4.23,4.23,0,0,1-3.34-1.41,5.59,5.59,0,0,1-1.24-3.82,5.84,5.84,0,0,1,1.21-3.81A4,4,0,0,1,919.68,4a3.58,3.58,0,0,1,2.88,1.28,5.13,5.13,0,0,1,1.09,3.43c0,.05,0,.17,0,.34s0,.29,0,.36h-7.08a4.87,4.87,0,0,0,.95,3.1,3,3,0,0,0,2.45,1.15,5.75,5.75,0,0,0,1.73-.23,9.16,9.16,0,0,0,1.53-.66l.19.86A6.51,6.51,0,0,1,919.92,14.58Zm-3.32-6.1h5.79a4,4,0,0,0-.73-2.6,2.45,2.45,0,0,0-2-.9,2.59,2.59,0,0,0-2.1,1A4.56,4.56,0,0,0,916.6,8.49Z"/><path class="cls-3" d="M926.7,14.36V4.19h1l.16,1.57a3.8,3.8,0,0,1,1.47-1.29,4.33,4.33,0,0,1,2-.47,3.21,3.21,0,0,1,2.58,1,4.69,4.69,0,0,1,.83,3.08v6.31h-1.16V7.53A3.07,3.07,0,0,0,933,5.58,2.23,2.23,0,0,0,931.25,5a3.52,3.52,0,0,0-2.26.7,3,3,0,0,0-1.1,1.8c0,.29,0,.59,0,.91v6Z"/><path class="cls-3" d="M941,14.57a2.6,2.6,0,0,1-1.87-.58,2.55,2.55,0,0,1-.59-1.89V5h-1.44l.08-.7,1.37-.13.31-2.33.81-.05V4.19h3V5h-3v6.83a2.14,2.14,0,0,0,.35,1.44,1.69,1.69,0,0,0,1.24.37,6.07,6.07,0,0,0,1.43-.21l0,.89A9.6,9.6,0,0,1,941,14.57Z"/><path class="cls-3" d="M956.57,14.05a3.9,3.9,0,0,1-2,.53,3.84,3.84,0,0,1-3.5-2,7.91,7.91,0,0,1-.83-2.29,14.66,14.66,0,0,1-.27-3A10.2,10.2,0,0,1,951.1,1.9a4,4,0,0,1,6.82,0,10.34,10.34,0,0,1,1.17,5.39,14.89,14.89,0,0,1-.27,3,7.94,7.94,0,0,1-.82,2.29A4,4,0,0,1,956.57,14.05Zm-2.06-.54a2.6,2.6,0,0,0,2.29-1.7,10.11,10.11,0,0,0,.87-4.58,9.78,9.78,0,0,0-.87-4.5,2.4,2.4,0,0,0-4.57,0,9.76,9.76,0,0,0-.86,4.51,10.09,10.09,0,0,0,.87,4.57A2.58,2.58,0,0,0,954.51,13.52Z"/><path class="cls-3" d="M1067.72,291.32a4.23,4.23,0,0,1-3.34-1.41,5.59,5.59,0,0,1-1.24-3.82,5.84,5.84,0,0,1,1.21-3.81,4,4,0,0,1,3.13-1.53,3.58,3.58,0,0,1,2.88,1.28,5.13,5.13,0,0,1,1.09,3.43c0,.05,0,.17,0,.34s0,.29,0,.36h-7.08a4.87,4.87,0,0,0,.95,3.1,3,3,0,0,0,2.45,1.15,5.75,5.75,0,0,0,1.73-.23,9.16,9.16,0,0,0,1.53-.66l.19.86A6.51,6.51,0,0,1,1067.72,291.32Zm-3.32-6.1h5.79a4,4,0,0,0-.73-2.6,2.45,2.45,0,0,0-2-.9,2.59,2.59,0,0,0-2.1,1A4.56,4.56,0,0,0,1064.4,285.22Z"/><path class="cls-3" d="M1077.06,291.31a2.6,2.6,0,0,1-1.87-.58,2.55,2.55,0,0,1-.59-1.89V277l1.13-.09v11.89a1.86,1.86,0,0,0,.34,1.28,1.36,1.36,0,0,0,1,.35,5.8,5.8,0,0,0,1.39-.21l0,.89A6.5,6.5,0,0,1,1077.06,291.31Z"/><path class="cls-3" d="M1084.77,291.32a4.23,4.23,0,0,1-3.34-1.41,5.59,5.59,0,0,1-1.24-3.82,5.84,5.84,0,0,1,1.21-3.81,4,4,0,0,1,3.13-1.53,3.58,3.58,0,0,1,2.88,1.28,5.13,5.13,0,0,1,1.09,3.43c0,.05,0,.17,0,.34s0,.29,0,.36h-7.08a4.87,4.87,0,0,0,.95,3.1,3,3,0,0,0,2.45,1.15,5.75,5.75,0,0,0,1.73-.23,9.17,9.17,0,0,0,1.53-.66l.19.86A6.51,6.51,0,0,1,1084.77,291.32Zm-3.32-6.1h5.79a4,4,0,0,0-.73-2.6,2.45,2.45,0,0,0-2-.9,2.59,2.59,0,0,0-2.1,1A4.56,4.56,0,0,0,1081.45,285.22Z"/><path class="cls-3" d="M1091.58,291.1q0-9.22,0-10.17h1l.15,1.56a3.4,3.4,0,0,1,1.33-1.25,3.81,3.81,0,0,1,1.88-.49,2.83,2.83,0,0,1,3.06,1.92,3.66,3.66,0,0,1,3.42-1.92,3,3,0,0,1,2.45,1,4.37,4.37,0,0,1,.78,2.83v6.57h-1.15v-5q0-.71,0-1.18t-.09-1a3.62,3.62,0,0,0-.21-.91,3.09,3.09,0,0,0-.38-.67,1.37,1.37,0,0,0-.59-.46,2.26,2.26,0,0,0-.85-.15,3,3,0,0,0-2,.69,3.63,3.63,0,0,0-1.13,1.94q0,.95,0,1.47v5.27h-1.14v-5.18q0-.79,0-1.37a7,7,0,0,0-.19-1.14,2.89,2.89,0,0,0-.38-.91,1.73,1.73,0,0,0-.63-.56,2,2,0,0,0-.94-.21,3.29,3.29,0,0,0-2.11.67,3.08,3.08,0,0,0-1.1,1.83c0,.25,0,.62,0,1.09v5.78Z"/><path class="cls-3" d="M1113.18,291.32a4.23,4.23,0,0,1-3.34-1.41,5.59,5.59,0,0,1-1.24-3.82,5.84,5.84,0,0,1,1.21-3.81,4,4,0,0,1,3.13-1.53,3.58,3.58,0,0,1,2.88,1.28,5.13,5.13,0,0,1,1.09,3.43c0,.05,0,.17,0,.34s0,.29,0,.36h-7.08a4.87,4.87,0,0,0,.95,3.1,3,3,0,0,0,2.45,1.15,5.75,5.75,0,0,0,1.73-.23,9.16,9.16,0,0,0,1.53-.66l.19.86A6.51,6.51,0,0,1,1113.18,291.32Zm-3.32-6.1h5.79a4,4,0,0,0-.73-2.6,2.45,2.45,0,0,0-2-.9,2.59,2.59,0,0,0-2.1,1A4.56,4.56,0,0,0,1109.85,285.22Z"/><path class="cls-3" d="M1120,291.1V280.93h1l.16,1.57a3.8,3.8,0,0,1,1.47-1.29,4.33,4.33,0,0,1,2-.47,3.21,3.21,0,0,1,2.58,1,4.69,4.69,0,0,1,.83,3.08v6.31h-1.16v-6.83a3.07,3.07,0,0,0-.57-1.95,2.23,2.23,0,0,0-1.74-.59,3.52,3.52,0,0,0-2.26.7,3,3,0,0,0-1.1,1.8c0,.29,0,.59,0,.91v6Z"/><path class="cls-3" d="M1134.27,291.31a2.6,2.6,0,0,1-1.87-.58,2.55,2.55,0,0,1-.59-1.89v-7.07h-1.44l.08-.7,1.37-.13.31-2.33.81-.05v2.37h3v.84h-3v6.83a2.14,2.14,0,0,0,.35,1.44,1.69,1.69,0,0,0,1.24.37,6.07,6.07,0,0,0,1.43-.21l0,.89A9.6,9.6,0,0,1,1134.27,291.31Z"/><path class="cls-3" d="M1143.35,291.1l-.28-1.18,4.82-5.6a13.21,13.21,0,0,0,1.41-2,3.32,3.32,0,0,0,.46-1.62,3,3,0,0,0-.62-2,2.35,2.35,0,0,0-1.86-.7,5.8,5.8,0,0,0-1.73.26,3.51,3.51,0,0,0-1.39.78l-.44-.9a5,5,0,0,1,3.6-1.11,3.9,3.9,0,0,1,2.8,1,3.38,3.38,0,0,1,1,2.56,4.49,4.49,0,0,1-.54,2.1,13.9,13.9,0,0,1-1.79,2.47l-4.17,4.8h6.62l-.07,1.14Z"/><path class="cls-5" d="M1102.82,226.62l3.54,3.61a.19.19,0,1,0,.26-.26l-3.67-3.75a.19.19,0,0,0-.26,0l-3.75,3.67a.19.19,0,0,0,.26.26Z"/><line class="cls-6" x1="1102.82" y1="226.62" x2="1102.82" y2="269.9"/><path class="cls-5" d="M910.71,71l-3.54-3.61a.19.19,0,0,0-.26.26l3.67,3.75a.19.19,0,0,0,.26,0l3.75-3.67a.19.19,0,1,0-.26-.26Z"/><line class="cls-6" x1="910.71" y1="70.96" x2="910.71" y2="27.68"/><path class="cls-4" d="M739.47,205.43V195.27h1l.16,1.57a3.8,3.8,0,0,1,1.47-1.29,4.33,4.33,0,0,1,2-.47,3.21,3.21,0,0,1,2.58,1,4.69,4.69,0,0,1,.83,3.08v6.31h-1.16v-6.83a3.07,3.07,0,0,0-.57-1.95,2.23,2.23,0,0,0-1.74-.59,3.52,3.52,0,0,0-2.26.7,3,3,0,0,0-1.1,1.8c0,.29,0,.59,0,.91v6Z"/><path class="cls-4" d="M755,205.66a4.23,4.23,0,0,1-3.34-1.41,5.59,5.59,0,0,1-1.24-3.82,5.84,5.84,0,0,1,1.21-3.81,4,4,0,0,1,3.13-1.53,3.58,3.58,0,0,1,2.88,1.28,5.13,5.13,0,0,1,1.09,3.43c0,.05,0,.17,0,.34s0,.29,0,.36h-7.08a4.87,4.87,0,0,0,.95,3.1,3,3,0,0,0,2.45,1.15,5.75,5.75,0,0,0,1.73-.23,9.16,9.16,0,0,0,1.53-.66l.19.86A6.51,6.51,0,0,1,755,205.66Zm-3.32-6.1h5.79a4,4,0,0,0-.73-2.6,2.45,2.45,0,0,0-2-.9,2.59,2.59,0,0,0-2.1,1A4.56,4.56,0,0,0,751.71,199.56Z"/><path class="cls-4" d="M764.78,205.67a6.85,6.85,0,0,1-1.85-.24,4.8,4.8,0,0,1-1.36-.57l.17-1a6.36,6.36,0,0,0,2.93.8q2.52,0,2.61-1.87a1.55,1.55,0,0,0-.51-1.22,6.17,6.17,0,0,0-2-.93l-.88-.3q-2.38-.72-2.4-2.57a2.45,2.45,0,0,1,.94-1.89,3.74,3.74,0,0,1,2.55-.82,7.28,7.28,0,0,1,3,.63l-.39.85a7.55,7.55,0,0,0-2.65-.54,2.69,2.69,0,0,0-1.69.48,1.57,1.57,0,0,0-.62,1.3,1.35,1.35,0,0,0,.4,1.05,4.21,4.21,0,0,0,1.6.7l.48.17.38.14a5.19,5.19,0,0,1,2.24,1.16,2.56,2.56,0,0,1,.64,1.83,2.51,2.51,0,0,1-1,2.07A4.17,4.17,0,0,1,764.78,205.67Z"/><path class="cls-4" d="M774.2,205.65a2.6,2.6,0,0,1-1.87-.58,2.55,2.55,0,0,1-.59-1.89v-7.07h-1.44l.08-.7,1.37-.13.31-2.33.81-.05v2.37h3v.84h-3v6.83a2.14,2.14,0,0,0,.35,1.44,1.69,1.69,0,0,0,1.24.37,6.07,6.07,0,0,0,1.43-.21l0,.89A9.6,9.6,0,0,1,774.2,205.65Z"/><path class="cls-4" d="M782.48,205.66a4.23,4.23,0,0,1-3.34-1.41,5.59,5.59,0,0,1-1.24-3.82,5.84,5.84,0,0,1,1.21-3.81,4,4,0,0,1,3.13-1.53,3.58,3.58,0,0,1,2.88,1.28,5.13,5.13,0,0,1,1.09,3.43c0,.05,0,.17,0,.34s0,.29,0,.36h-7.08a4.87,4.87,0,0,0,.95,3.1,3,3,0,0,0,2.45,1.15,5.75,5.75,0,0,0,1.73-.23,9.16,9.16,0,0,0,1.53-.66l.19.86A6.51,6.51,0,0,1,782.48,205.66Zm-3.32-6.1H785a4,4,0,0,0-.73-2.6,2.45,2.45,0,0,0-2-.9,2.59,2.59,0,0,0-2.1,1A4.56,4.56,0,0,0,779.16,199.56Z"/><path class="cls-4" d="M793.11,205.65a3.84,3.84,0,0,1-3.17-1.41,6,6,0,0,1-1.14-3.9,5.88,5.88,0,0,1,1.17-3.8,3.77,3.77,0,0,1,3.09-1.46,4.72,4.72,0,0,1,1.89.41,2.94,2.94,0,0,1,1.44,1.27v-5.44l1.11-.1v14.21h-1l-.17-1.53a3.37,3.37,0,0,1-1.43,1.3A4.17,4.17,0,0,1,793.11,205.65Zm0-.91a3.42,3.42,0,0,0,1.51-.32,2.61,2.61,0,0,0,1-.89,4.17,4.17,0,0,0,.58-1.32,6.7,6.7,0,0,0,.19-1.66q0-4.54-3.34-4.54a2.58,2.58,0,0,0-1.39.38,2.69,2.69,0,0,0-1,1,5.28,5.28,0,0,0-.51,1.38,7.2,7.2,0,0,0-.17,1.57,8.31,8.31,0,0,0,.1,1.34,5.35,5.35,0,0,0,.33,1.19,3.59,3.59,0,0,0,.57,1,2.44,2.44,0,0,0,.86.64A2.78,2.78,0,0,0,793.08,204.74Z"/><path class="cls-4" d="M746.77,228.46a3.46,3.46,0,0,1-2.3-.72,2.55,2.55,0,0,1-.86-2.07,2.71,2.71,0,0,1,.34-1.39,2.58,2.58,0,0,1,1-1,5.92,5.92,0,0,1,1.49-.57,12,12,0,0,1,2-.29l1.76-.12v-1.13a2.55,2.55,0,0,0-.53-1.76,2.21,2.21,0,0,0-1.71-.59,6.15,6.15,0,0,0-3,.77l-.17-.4c-.09-.21-.15-.37-.19-.48a5.38,5.38,0,0,1,1.5-.62,7,7,0,0,1,1.82-.25,3.65,3.65,0,0,1,2.63.79,3.83,3.83,0,0,1,.8,2.78v6.79h-.9q0-.21-.13-.84c-.06-.42-.09-.64-.09-.65A3.89,3.89,0,0,1,746.77,228.46Zm0-.92a3.39,3.39,0,0,0,2.11-.7,3.27,3.27,0,0,0,1.21-1.94v-1.73l-1.34.11a7.9,7.9,0,0,0-3.15.74,1.82,1.82,0,0,0-.88,1.67,1.7,1.7,0,0,0,.56,1.39A2.26,2.26,0,0,0,746.81,227.54Z"/><path class="cls-4" d="M754.83,228.23q0-9,0-10.17h.95l.07,2a4.72,4.72,0,0,1,1.39-1.48A3.09,3.09,0,0,1,759,218a5.61,5.61,0,0,1,.82.06l-.08,1A4.29,4.29,0,0,0,759,219a2.75,2.75,0,0,0-2.17,1,3.56,3.56,0,0,0-.88,2.41v5.84Z"/><path class="cls-4" d="M762.22,228.23q0-9,0-10.17h.95l.07,2a4.72,4.72,0,0,1,1.39-1.48,3.09,3.09,0,0,1,1.76-.57,5.61,5.61,0,0,1,.82.06l-.08,1a4.29,4.29,0,0,0-.71-.05,2.75,2.75,0,0,0-2.17,1,3.56,3.56,0,0,0-.88,2.41v5.84Z"/><path class="cls-4" d="M772.2,228.46a3.46,3.46,0,0,1-2.3-.72,2.55,2.55,0,0,1-.86-2.07,2.71,2.71,0,0,1,.34-1.39,2.58,2.58,0,0,1,1-1,5.92,5.92,0,0,1,1.49-.57,12,12,0,0,1,2-.29l1.76-.12v-1.13a2.55,2.55,0,0,0-.53-1.76,2.21,2.21,0,0,0-1.71-.59,6.15,6.15,0,0,0-3,.77l-.17-.4c-.09-.21-.15-.37-.19-.48a5.38,5.38,0,0,1,1.5-.62,7,7,0,0,1,1.82-.25,3.65,3.65,0,0,1,2.63.79,3.83,3.83,0,0,1,.8,2.78v6.79h-.9q0-.21-.13-.84c-.06-.42-.09-.64-.09-.65A3.89,3.89,0,0,1,772.2,228.46Zm0-.92a3.39,3.39,0,0,0,2.11-.7,3.27,3.27,0,0,0,1.21-1.94v-1.73l-1.34.11a7.9,7.9,0,0,0-3.15.74,1.82,1.82,0,0,0-.88,1.67,1.7,1.7,0,0,0,.56,1.39A2.26,2.26,0,0,0,772.24,227.54Z"/><path class="cls-4" d="M779.78,233.06A4.19,4.19,0,0,1,779,233l-.08-.95h.64a3.13,3.13,0,0,0,1.75-.4,3.3,3.3,0,0,0,1-1.56l.29-.8q.24-.64.37-1l-4.06-10.23h1.21l3.46,9.15.42-1.28q2.55-8,2.62-8s0,0,0,.09h1.21L783.58,230a6.07,6.07,0,0,1-1.5,2.29A3.37,3.37,0,0,1,779.78,233.06Z"/><path class="cls-4" d="M796.33,228.23V215.65a7,7,0,0,1-.94.53,11.52,11.52,0,0,1-1.29.54v-1a15.37,15.37,0,0,0,2.44-1.29h1v13.8Z"/><rect class="cls-7" x="851.9" y="45.31" width="307.38" height="216.97"/><path class="cls-8" d="M858.52,88l-3.61,3.54a.19.19,0,1,0,.26.26l3.75-3.67a.19.19,0,0,0,0-.26l-3.67-3.75a.19.19,0,0,0-.26.26Z"/><line class="cls-8" x1="858.52" y1="87.99" x2="815.24" y2="87.99"/><path class="cls-8" d="M858.52,209.75l-3.61,3.54a.19.19,0,1,0,.26.26l3.75-3.67a.19.19,0,0,0,0-.26l-3.67-3.75a.19.19,0,0,0-.26.26Z"/><line class="cls-8" x1="858.52" y1="209.75" x2="815.24" y2="209.75"/><path class="cls-1" d="M741.95,151.87a3.46,3.46,0,0,1-2.3-.72,2.55,2.55,0,0,1-.86-2.07,2.71,2.71,0,0,1,.34-1.39,2.58,2.58,0,0,1,1-1,5.92,5.92,0,0,1,1.49-.57,12,12,0,0,1,2-.29l1.76-.12v-1.13a2.55,2.55,0,0,0-.53-1.76,2.21,2.21,0,0,0-1.71-.59,6.15,6.15,0,0,0-3,.77l-.17-.4c-.09-.21-.15-.37-.19-.48a5.38,5.38,0,0,1,1.5-.62,7,7,0,0,1,1.82-.25,3.65,3.65,0,0,1,2.63.79,3.83,3.83,0,0,1,.8,2.78v6.79h-.9q0-.21-.13-.84c-.06-.42-.09-.64-.09-.65A3.89,3.89,0,0,1,741.95,151.87Zm0-.92a3.39,3.39,0,0,0,2.11-.7,3.27,3.27,0,0,0,1.21-1.94v-1.73l-1.34.11a7.9,7.9,0,0,0-3.15.74,1.82,1.82,0,0,0-.88,1.67,1.7,1.7,0,0,0,.56,1.39A2.26,2.26,0,0,0,742,151Z"/><path class="cls-1" d="M750,151.65q0-9,0-10.17h.95l.07,2a4.72,4.72,0,0,1,1.39-1.48,3.09,3.09,0,0,1,1.76-.57,5.61,5.61,0,0,1,.82.06l-.08,1a4.29,4.29,0,0,0-.71-.05,2.75,2.75,0,0,0-2.17,1,3.56,3.56,0,0,0-.88,2.41v5.84Z"/><path class="cls-1" d="M757.39,151.65q0-9,0-10.17h.95l.07,2a4.72,4.72,0,0,1,1.39-1.48,3.09,3.09,0,0,1,1.76-.57,5.61,5.61,0,0,1,.82.06l-.08,1a4.29,4.29,0,0,0-.71-.05,2.75,2.75,0,0,0-2.17,1,3.56,3.56,0,0,0-.88,2.41v5.84Z"/><path class="cls-1" d="M767.37,151.87a3.46,3.46,0,0,1-2.3-.72,2.55,2.55,0,0,1-.86-2.07,2.71,2.71,0,0,1,.34-1.39,2.58,2.58,0,0,1,1-1,5.92,5.92,0,0,1,1.49-.57,12,12,0,0,1,2-.29l1.76-.12v-1.13a2.55,2.55,0,0,0-.53-1.76,2.21,2.21,0,0,0-1.71-.59,6.15,6.15,0,0,0-3,.77l-.17-.4c-.09-.21-.15-.37-.19-.48a5.38,5.38,0,0,1,1.5-.62,7,7,0,0,1,1.82-.25,3.65,3.65,0,0,1,2.63.79,3.83,3.83,0,0,1,.8,2.78v6.79H771q0-.21-.13-.84c-.06-.42-.09-.64-.09-.65A3.89,3.89,0,0,1,767.37,151.87Zm0-.92a3.39,3.39,0,0,0,2.11-.7,3.27,3.27,0,0,0,1.21-1.94v-1.73l-1.34.11a7.9,7.9,0,0,0-3.15.74,1.82,1.82,0,0,0-.88,1.67,1.7,1.7,0,0,0,.56,1.39A2.26,2.26,0,0,0,767.41,151Z"/><path class="cls-1" d="M775,156.47a4.19,4.19,0,0,1-.79-.07l-.08-.95h.64a3.13,3.13,0,0,0,1.75-.4,3.3,3.3,0,0,0,1-1.56l.29-.8q.24-.64.37-1l-4.06-10.23h1.21l3.46,9.15.42-1.28q2.55-8,2.62-8s0,0,0,.09H783l-4.25,11.95a6.07,6.07,0,0,1-1.5,2.29A3.37,3.37,0,0,1,775,156.47Z"/><path class="cls-7" d="M848.24,147.06l-3.61,3.54a.19.19,0,1,0,.26.26l3.75-3.67a.19.19,0,0,0,0-.26L845,143.18a.19.19,0,0,0-.26.26Z"/><line class="cls-7" x1="848.24" y1="147.06" x2="804.97" y2="147.06"/><rect class="cls-8" x="860.37" y="51.72" width="290.72" height="98.49"/><path class="cls-1" d="M9.25,151H7.76a7,7,0,0,1-2.83-.41,2.57,2.57,0,0,1-.78-.54q-.76-.79-.79-3.49V136.41H0V135H5.23v11.51A4.91,4.91,0,0,0,5.6,149a1.38,1.38,0,0,0,.94.53,9.88,9.88,0,0,0,1.15.07H9.34Z"/><path class="cls-1" d="M12.87,150.49a4.7,4.7,0,0,1-1.75-2.11,7.55,7.55,0,0,1-.57-3,8.06,8.06,0,0,1,.53-3,5,5,0,0,1,1.58-2.14,3.69,3.69,0,0,1,2.31-.82,3.92,3.92,0,0,1,3.49,1.63,7,7,0,0,1,1.11,4v.63H12.44a5.56,5.56,0,0,0,.87,2.94,2.71,2.71,0,0,0,2.41,1.21,8.59,8.59,0,0,0,3-1.17l.62,1.27a4.92,4.92,0,0,1-3.64,1.33A5,5,0,0,1,12.87,150.49Zm4.91-6.17q-.21-3.46-2.42-3.46-2.5,0-2.86,3.46Z"/><path class="cls-1" d="M24.74,141.21v5.28a8.81,8.81,0,0,0,.11,1.56,1.87,1.87,0,0,0,.43.93,1.58,1.58,0,0,0,.84.48,6.24,6.24,0,0,0,1.39.12h2.06l-.1,1.44H27.58q-2.9,0-3.87-1.07a3.87,3.87,0,0,1-.77-2.25,16.67,16.67,0,0,1-.07-1.69v-4.81H19.69l.21-1.44h3V135.9l1.87-.55v4.43h4.74v1.44Z"/><path class="cls-1" d="M49.58,151H48.09a7,7,0,0,1-2.83-.41,2.57,2.57,0,0,1-.78-.54q-.76-.79-.79-3.49V136.41H40.33V135h5.23v11.51a4.91,4.91,0,0,0,.37,2.5,1.38,1.38,0,0,0,.94.53,9.88,9.88,0,0,0,1.15.07h1.65Z"/><path class="cls-1" d="M53.2,150.49a4.7,4.7,0,0,1-1.75-2.11,7.55,7.55,0,0,1-.57-3,8.06,8.06,0,0,1,.53-3A5,5,0,0,1,53,140.24a3.69,3.69,0,0,1,2.31-.82,3.92,3.92,0,0,1,3.49,1.63,7,7,0,0,1,1.11,4v.63H52.77a5.56,5.56,0,0,0,.87,2.94A2.71,2.71,0,0,0,56,149.84a8.59,8.59,0,0,0,3-1.17l.62,1.27A4.92,4.92,0,0,1,56,151.28,5,5,0,0,1,53.2,150.49Zm4.91-6.17q-.21-3.46-2.42-3.46-2.5,0-2.86,3.46Z"/><path class="cls-1" d="M65.07,141.21v5.28a8.81,8.81,0,0,0,.11,1.56,1.87,1.87,0,0,0,.43.93,1.58,1.58,0,0,0,.84.48,6.24,6.24,0,0,0,1.39.12H69.9l-.1,1.44H67.91Q65,151,64,150a3.87,3.87,0,0,1-.77-2.25A16.67,16.67,0,0,1,63.2,146v-4.81H60l.21-1.44h3V135.9l1.87-.55v4.43H69.8v1.44Z"/><path class="cls-1" d="M75.15,141.21v5.28a8.81,8.81,0,0,0,.11,1.56,1.87,1.87,0,0,0,.43.93,1.58,1.58,0,0,0,.84.48,6.24,6.24,0,0,0,1.39.12H80l-.1,1.44H78q-2.9,0-3.87-1.07a3.87,3.87,0,0,1-.77-2.25,16.67,16.67,0,0,1-.07-1.69v-4.81H70.1l.21-1.44h3V135.9l1.87-.55v4.43h4.74v1.44Z"/><path class="cls-1" d="M83.45,150.49a4.7,4.7,0,0,1-1.75-2.11,7.55,7.55,0,0,1-.57-3,8.06,8.06,0,0,1,.53-3,5,5,0,0,1,1.58-2.14,3.69,3.69,0,0,1,2.31-.82A3.92,3.92,0,0,1,89,141.05a7,7,0,0,1,1.11,4v.63H83a5.56,5.56,0,0,0,.87,2.94,2.71,2.71,0,0,0,2.41,1.21,8.59,8.59,0,0,0,3-1.17l.62,1.27a4.92,4.92,0,0,1-3.64,1.33A5,5,0,0,1,83.45,150.49Zm4.91-6.17q-.21-3.46-2.42-3.46-2.5,0-2.86,3.46Z"/><path class="cls-1" d="M94.9,151H93V139.77h1.53l.15,2.08a4.67,4.67,0,0,1,1.8-1.8,5.16,5.16,0,0,1,2.53-.62h.9v1.73H98.79a4.22,4.22,0,0,0-2.84.9,3.37,3.37,0,0,0-1,2.7Z"/><path class="cls-1" d="M109.21,145.77a3.35,3.35,0,0,1,.67,2.25,2.87,2.87,0,0,1-1.12,2.36,4.38,4.38,0,0,1-2.81.89,9.12,9.12,0,0,1-2.35-.3,5,5,0,0,1-1.68-.71l.46-1.34a5.87,5.87,0,0,0,1.36.54,7.23,7.23,0,0,0,2,.27,3,3,0,0,0,1.74-.46,1.42,1.42,0,0,0,.65-1.21,2,2,0,0,0-.32-1.2,2.15,2.15,0,0,0-1.25-.66l-1.91-.46a3.65,3.65,0,0,1-2.19-1.19,3.35,3.35,0,0,1-.54-2,3,3,0,0,1,.95-2.15,3.72,3.72,0,0,1,2.76-1h.13a7.29,7.29,0,0,1,3.48.77l-.41,1.31a7.72,7.72,0,0,0-3-.63,2.55,2.55,0,0,0-1.56.48,1.42,1.42,0,0,0-.61,1.17,1.58,1.58,0,0,0,.31,1.06,2.24,2.24,0,0,0,1.17.56l2,.48A4,4,0,0,1,109.21,145.77Z"/><path class="cls-1" d="M131.82,141.81H119.93v-1.54h11.89Zm0,4.52H119.94v-1.52h11.89Z"/><path class="cls-1" d="M143.79,152.36v-19a.07.07,0,0,1,.05-.05h5.27a.07.07,0,0,1,.05.05v1.35a.07.07,0,0,1-.05.05h-3.38V151h3.39a.07.07,0,0,1,.05.05v1.35a.07.07,0,0,1-.05.05h-5.28A.07.07,0,0,1,143.79,152.36Z"/><path class="cls-4" d="M164,152.36v-19a.07.07,0,0,1,.05-.05h5.27a.07.07,0,0,1,.05.05v1.35a.07.07,0,0,1-.05.05H165.9V151h3.39a.07.07,0,0,1,.05.05v1.35a.07.07,0,0,1-.05.05H164A.07.07,0,0,1,164,152.36Z"/><path class="cls-2" d="M175.71,141.08l-.64-6.27h2.66l-.56,6.27Z"/><path class="cls-2" d="M187.46,135.73,192,151h-2l-1.45-4.93h-4.3L182.78,151h-2l4.51-15.29Zm-2.84,8.82h3.51l-1.72-6.63Z"/><path class="cls-2" d="M195.88,141.08l-.64-6.27h2.66l-.56,6.27Z"/><path class="cls-2" d="M204.75,154.31l.52-6.22h2.64L206,154.31Z"/><path class="cls-2" d="M226.12,141.08l-.64-6.27h2.66l-.56,6.27Z"/><path class="cls-2" d="M241.88,146.58q0,4.44-6.11,4.44h-3.68V135.73h3q3.45,0,4.72,1a3.29,3.29,0,0,1,1.28,2.77,3,3,0,0,1-.74,2.1,4.13,4.13,0,0,1-2,1.13,4.22,4.22,0,0,1,2.52,1.29A3.61,3.61,0,0,1,241.88,146.58ZM235.52,142a4.82,4.82,0,0,0,2.79-.59,1.9,1.9,0,0,0,.78-1.6,2.2,2.2,0,0,0-.83-2,3.39,3.39,0,0,0-1.47-.48,20.37,20.37,0,0,0-2.25-.1H234V142Zm.46,1.65h-2v5.83h1.65a6.19,6.19,0,0,0,3.17-.64,2.52,2.52,0,0,0,1-2.33,2.4,2.4,0,0,0-1-2.28A5.81,5.81,0,0,0,236,143.69Z"/><path class="cls-2" d="M246.29,141.08l-.64-6.27h2.66l-.56,6.27Z"/><path class="cls-2" d="M255.16,154.31l.52-6.22h2.64l-1.91,6.22Z"/><path class="cls-2" d="M276.53,141.08l-.64-6.27h2.66l-.56,6.27Z"/><path class="cls-2" d="M292.46,136.76l-.68,1.34a4.73,4.73,0,0,0-3-1.06,3.88,3.88,0,0,0-2.62.89q-2,1.73-2,5.41a9.24,9.24,0,0,0,.52,3.2,5.24,5.24,0,0,0,1.55,2.28,3.65,3.65,0,0,0,2.4.86,4.82,4.82,0,0,0,3.15-1.11l.67,1.45a6,6,0,0,1-4.05,1.25,5.51,5.51,0,0,1-3.31-1,6.5,6.5,0,0,1-2.19-2.83,9.74,9.74,0,0,1-.76-3.82,11.38,11.38,0,0,1,.48-3.51A7.43,7.43,0,0,1,284,137.6a5.94,5.94,0,0,1,2-1.56,5.58,5.58,0,0,1,2.47-.56A6,6,0,0,1,292.46,136.76Z"/><path class="cls-2" d="M296.7,141.08l-.64-6.27h2.66l-.56,6.27Z"/><path class="cls-4" d="M309,152.36a.07.07,0,0,1-.05.05h-5.28a.07.07,0,0,1-.05-.05V151a.07.07,0,0,1,.05-.05h3.39V134.74h-3.38a.07.07,0,0,1-.05-.05v-1.35a.07.07,0,0,1,.05-.05H309a.07.07,0,0,1,.05.05Z"/><path class="cls-9" d="M315.65,154.31l.52-6.22h2.64l-1.91,6.22Z"/><path class="cls-4" d="M335.35,152.36v-19a.07.07,0,0,1,.05-.05h5.27a.07.07,0,0,1,.05.05v1.35a.07.07,0,0,1-.05.05h-3.38V151h3.39a.07.07,0,0,1,.05.05v1.35a.07.07,0,0,1-.05.05H335.4A.07.07,0,0,1,335.35,152.36Z"/><path class="cls-3" d="M347.11,141.08l-.64-6.27h2.66l-.56,6.27Z"/><path class="cls-3" d="M353.07,135.73h2.51a7.25,7.25,0,0,1,5.52,2A8,8,0,0,1,363,143.4a7.79,7.79,0,0,1-1.91,5.67q-1.91,2-5.71,2h-2.29Zm2.21,13.79q3.7,0,4.92-2.32a8.26,8.26,0,0,0,.76-3.85,7.34,7.34,0,0,0-1.21-4.56q-1.22-1.57-4.45-1.57H355v12.29Z"/><path class="cls-3" d="M367.27,141.08l-.64-6.27h2.66l-.56,6.27Z"/><path class="cls-3" d="M376.14,154.31l.52-6.22h2.64l-1.91,6.22Z"/><path class="cls-3" d="M397.52,141.08l-.64-6.27h2.66l-.56,6.27Z"/><path class="cls-3" d="M406,144v5.52h7.22l-.15,1.5h-9V135.73h8.8l-.16,1.5H406v5.15h6.38V144Z"/><path class="cls-3" d="M417.68,141.08l-.64-6.27h2.66l-.56,6.27Z"/><path class="cls-3" d="M426.55,154.31l.52-6.22h2.64l-1.91,6.22Z"/><path class="cls-3" d="M447.93,141.08l-.64-6.27h2.66l-.56,6.27Z"/><path class="cls-3" d="M456.71,144v7h-1.92V135.73h8.55l-.18,1.5h-6.45v5.12h6.18V144Z"/><path class="cls-3" d="M468.09,141.08l-.64-6.27h2.66l-.56,6.27Z"/><path class="cls-4" d="M480.4,152.36a.07.07,0,0,1-.05.05h-5.28a.07.07,0,0,1-.05-.05V151a.07.07,0,0,1,.05-.05h3.39V134.74h-3.38a.07.07,0,0,1-.05-.05v-1.35a.07.07,0,0,1,.05-.05h5.27a.07.07,0,0,1,.05.05Z"/><path class="cls-1" d="M500.56,152.36a.07.07,0,0,1-.05.05h-5.28a.07.07,0,0,1-.05-.05V151a.07.07,0,0,1,.05-.05h3.39V134.74h-3.38a.07.07,0,0,1-.05-.05v-1.35a.07.07,0,0,1,.05-.05h5.27a.07.07,0,0,1,.05.05Z"/><path class="cls-1" d="M506.9,154.23l.78-6.14h2.79l-1.72,6.14Zm3.77-11.8h-3.07v-3.09h3.07Z"/><path class="cls-4" d="M203.58,235V224.8h1l.16,1.57a3.8,3.8,0,0,1,1.47-1.29,4.33,4.33,0,0,1,2-.47,3.21,3.21,0,0,1,2.58,1,4.69,4.69,0,0,1,.83,3.08V235h-1.16v-6.83a3.06,3.06,0,0,0-.57-1.95,2.22,2.22,0,0,0-1.74-.59,3.52,3.52,0,0,0-2.26.7,3,3,0,0,0-1.1,1.8c0,.29,0,.59,0,.91v6Z"/><path class="cls-4" d="M219.15,235.2a4.22,4.22,0,0,1-3.34-1.41,5.58,5.58,0,0,1-1.24-3.82,5.84,5.84,0,0,1,1.21-3.81,4,4,0,0,1,3.13-1.53,3.58,3.58,0,0,1,2.88,1.28,5.13,5.13,0,0,1,1.09,3.43c0,.06,0,.17,0,.34s0,.29,0,.36h-7.08a4.87,4.87,0,0,0,.95,3.1,3,3,0,0,0,2.45,1.15,5.75,5.75,0,0,0,1.73-.23,9,9,0,0,0,1.53-.66l.19.86A6.51,6.51,0,0,1,219.15,235.2Zm-3.32-6.1h5.79a4,4,0,0,0-.73-2.6,2.45,2.45,0,0,0-2-.9,2.59,2.59,0,0,0-2.1,1A4.56,4.56,0,0,0,215.83,229.1Z"/><path class="cls-4" d="M228.9,235.21a6.78,6.78,0,0,1-1.85-.24,4.8,4.8,0,0,1-1.36-.57l.17-1a6.36,6.36,0,0,0,2.93.8q2.52,0,2.61-1.86a1.55,1.55,0,0,0-.51-1.22,6.13,6.13,0,0,0-2-.93l-.88-.31q-2.38-.72-2.4-2.57a2.45,2.45,0,0,1,.94-1.89,3.73,3.73,0,0,1,2.55-.82,7.31,7.31,0,0,1,3,.63l-.39.85a7.59,7.59,0,0,0-2.65-.54,2.68,2.68,0,0,0-1.69.48,1.56,1.56,0,0,0-.62,1.3,1.35,1.35,0,0,0,.4,1.05,4.25,4.25,0,0,0,1.6.7l.48.17.38.14a5.22,5.22,0,0,1,2.24,1.16,2.56,2.56,0,0,1,.64,1.83,2.52,2.52,0,0,1-1,2.07A4.17,4.17,0,0,1,228.9,235.21Z"/><path class="cls-4" d="M238.31,235.19a2.61,2.61,0,0,1-1.87-.58,2.56,2.56,0,0,1-.59-1.89v-7.07h-1.44l.08-.7,1.37-.13.31-2.33.81-.05v2.37h3v.84h-3v6.83a2.14,2.14,0,0,0,.35,1.44,1.69,1.69,0,0,0,1.24.37,6.09,6.09,0,0,0,1.43-.21l0,.89A9.6,9.6,0,0,1,238.31,235.19Z"/><path class="cls-4" d="M246.6,235.2a4.22,4.22,0,0,1-3.34-1.41A5.58,5.58,0,0,1,242,230a5.84,5.84,0,0,1,1.21-3.81,4,4,0,0,1,3.13-1.53,3.58,3.58,0,0,1,2.88,1.28,5.13,5.13,0,0,1,1.09,3.43c0,.06,0,.17,0,.34s0,.29,0,.36h-7.08a4.87,4.87,0,0,0,.95,3.1,3,3,0,0,0,2.45,1.15,5.75,5.75,0,0,0,1.73-.23,9,9,0,0,0,1.53-.66l.19.86A6.51,6.51,0,0,1,246.6,235.2Zm-3.32-6.1h5.79a4,4,0,0,0-.73-2.6,2.45,2.45,0,0,0-2-.9,2.59,2.59,0,0,0-2.1,1A4.56,4.56,0,0,0,243.28,229.1Z"/><path class="cls-4" d="M257.22,235.19a3.84,3.84,0,0,1-3.17-1.41,6,6,0,0,1-1.14-3.9,5.88,5.88,0,0,1,1.17-3.8,3.78,3.78,0,0,1,3.09-1.46,4.76,4.76,0,0,1,1.89.41,3,3,0,0,1,1.44,1.27v-5.44l1.11-.1V235h-1l-.17-1.53a3.38,3.38,0,0,1-1.43,1.3A4.19,4.19,0,0,1,257.22,235.19Zm0-.91a3.42,3.42,0,0,0,1.51-.32,2.58,2.58,0,0,0,1-.89,4.15,4.15,0,0,0,.58-1.32,6.71,6.71,0,0,0,.19-1.66q0-4.54-3.34-4.54a2.58,2.58,0,0,0-1.39.38,2.71,2.71,0,0,0-1,1,5.27,5.27,0,0,0-.51,1.38,7.19,7.19,0,0,0-.17,1.57,8.28,8.28,0,0,0,.1,1.34,5.37,5.37,0,0,0,.33,1.19,3.58,3.58,0,0,0,.57,1,2.45,2.45,0,0,0,.86.64A2.78,2.78,0,0,0,257.19,234.28Z"/><path class="cls-4" d="M208,258a3.46,3.46,0,0,1-2.3-.72,2.55,2.55,0,0,1-.86-2.07,2.71,2.71,0,0,1,.34-1.39,2.58,2.58,0,0,1,1-1,5.84,5.84,0,0,1,1.49-.57,12.22,12.22,0,0,1,2-.29l1.76-.12v-1.13a2.54,2.54,0,0,0-.53-1.76,2.21,2.21,0,0,0-1.71-.59,6.16,6.16,0,0,0-3,.77l-.17-.4c-.09-.21-.15-.37-.19-.48a5.44,5.44,0,0,1,1.5-.62,7,7,0,0,1,1.82-.25,3.66,3.66,0,0,1,2.63.78,3.84,3.84,0,0,1,.8,2.78v6.79h-.9q0-.21-.13-.84c-.06-.42-.09-.64-.09-.65A3.89,3.89,0,0,1,208,258Zm0-.92a3.4,3.4,0,0,0,2.11-.7,3.27,3.27,0,0,0,1.21-1.94V252.7l-1.34.11a7.87,7.87,0,0,0-3.15.74,1.81,1.81,0,0,0-.88,1.67,1.7,1.7,0,0,0,.56,1.39A2.27,2.27,0,0,0,208.06,257.08Z"/><path class="cls-4" d="M216.08,257.77q0-9,0-10.17H217l.07,2a4.68,4.68,0,0,1,1.39-1.48,3.08,3.08,0,0,1,1.76-.58,5.36,5.36,0,0,1,.82.07l-.08,1a4.29,4.29,0,0,0-.71-.06,2.75,2.75,0,0,0-2.17,1,3.57,3.57,0,0,0-.88,2.41v5.84Z"/><path class="cls-4" d="M223.47,257.77q0-9,0-10.17h.95l.07,2a4.68,4.68,0,0,1,1.39-1.48,3.08,3.08,0,0,1,1.76-.58,5.36,5.36,0,0,1,.82.07l-.08,1a4.29,4.29,0,0,0-.71-.06,2.75,2.75,0,0,0-2.17,1,3.57,3.57,0,0,0-.88,2.41v5.84Z"/><path class="cls-4" d="M233.45,258a3.46,3.46,0,0,1-2.3-.72,2.55,2.55,0,0,1-.86-2.07,2.71,2.71,0,0,1,.34-1.39,2.58,2.58,0,0,1,1-1,5.84,5.84,0,0,1,1.49-.57,12.22,12.22,0,0,1,2-.29l1.76-.12v-1.13a2.54,2.54,0,0,0-.53-1.76,2.21,2.21,0,0,0-1.71-.59,6.16,6.16,0,0,0-3,.77l-.17-.4c-.09-.21-.15-.37-.19-.48a5.44,5.44,0,0,1,1.5-.62,7,7,0,0,1,1.82-.25,3.66,3.66,0,0,1,2.63.78A3.84,3.84,0,0,1,238,251v6.79h-.9q0-.21-.13-.84c-.06-.42-.09-.64-.09-.65A3.89,3.89,0,0,1,233.45,258Zm0-.92a3.4,3.4,0,0,0,2.11-.7,3.27,3.27,0,0,0,1.21-1.94V252.7l-1.34.11a7.87,7.87,0,0,0-3.15.74,1.81,1.81,0,0,0-.88,1.67,1.7,1.7,0,0,0,.56,1.39A2.27,2.27,0,0,0,233.49,257.08Z"/><path class="cls-4" d="M241,262.6a4.35,4.35,0,0,1-.79-.07l-.08-.95h.27l.37,0a3.13,3.13,0,0,0,1.75-.4,3.3,3.3,0,0,0,1-1.56l.29-.8.37-1-4.06-10.23h1.21l3.46,9.15.42-1.28q2.55-8,2.62-8s0,0,0,.09h1.21l-4.25,11.95a6.09,6.09,0,0,1-1.5,2.29A3.37,3.37,0,0,1,241,262.6Z"/><path class="cls-4" d="M262.74,257.47a3.9,3.9,0,0,1-2,.53,3.84,3.84,0,0,1-3.5-2,7.91,7.91,0,0,1-.83-2.29,14.66,14.66,0,0,1-.27-3,10.2,10.2,0,0,1,1.18-5.38,4,4,0,0,1,6.82,0,10.34,10.34,0,0,1,1.17,5.39,14.89,14.89,0,0,1-.27,3,7.94,7.94,0,0,1-.82,2.29A4,4,0,0,1,262.74,257.47Zm-2.06-.54a2.6,2.6,0,0,0,2.29-1.7,10.11,10.11,0,0,0,.87-4.58,9.78,9.78,0,0,0-.87-4.5,2.4,2.4,0,0,0-4.57,0,9.76,9.76,0,0,0-.86,4.51,10.09,10.09,0,0,0,.87,4.57A2.58,2.58,0,0,0,260.68,256.93Z"/><path class="cls-3" d="M155.42,61.95a4.22,4.22,0,0,1-3.34-1.41,5.59,5.59,0,0,1-1.24-3.82,5.84,5.84,0,0,1,1.21-3.81,4,4,0,0,1,3.13-1.53,3.58,3.58,0,0,1,2.88,1.28,5.13,5.13,0,0,1,1.09,3.43c0,.06,0,.17,0,.34s0,.29,0,.36h-7.08a4.87,4.87,0,0,0,.95,3.1A3,3,0,0,0,155.45,61a5.75,5.75,0,0,0,1.73-.23,9.08,9.08,0,0,0,1.53-.66l.19.86A6.51,6.51,0,0,1,155.42,61.95Zm-3.32-6.1h5.79a4,4,0,0,0-.73-2.6,2.45,2.45,0,0,0-2-.9,2.59,2.59,0,0,0-2.1,1A4.56,4.56,0,0,0,152.1,55.85Z"/><path class="cls-3" d="M164.77,61.94a2.6,2.6,0,0,1-1.87-.58,2.55,2.55,0,0,1-.59-1.89V47.61l1.13-.09V59.41a1.86,1.86,0,0,0,.34,1.28,1.36,1.36,0,0,0,1,.35,5.81,5.81,0,0,0,1.39-.21l0,.89A6.5,6.5,0,0,1,164.77,61.94Z"/><path class="cls-3" d="M172.48,61.95a4.22,4.22,0,0,1-3.34-1.41,5.59,5.59,0,0,1-1.24-3.82,5.84,5.84,0,0,1,1.21-3.81,4,4,0,0,1,3.13-1.53,3.58,3.58,0,0,1,2.88,1.28,5.13,5.13,0,0,1,1.09,3.43c0,.06,0,.17,0,.34s0,.29,0,.36h-7.08a4.87,4.87,0,0,0,.95,3.1A3,3,0,0,0,172.5,61a5.75,5.75,0,0,0,1.73-.23,9.08,9.08,0,0,0,1.53-.66L176,61A6.51,6.51,0,0,1,172.48,61.95Zm-3.32-6.1h5.79a4,4,0,0,0-.73-2.6,2.45,2.45,0,0,0-2-.9,2.59,2.59,0,0,0-2.1,1A4.56,4.56,0,0,0,169.16,55.85Z"/><path class="cls-3" d="M179.29,61.73q0-9.22,0-10.17h1l.15,1.56a3.41,3.41,0,0,1,1.33-1.25,3.81,3.81,0,0,1,1.88-.49,2.83,2.83,0,0,1,3.06,1.92,3.66,3.66,0,0,1,3.42-1.92,3,3,0,0,1,2.45,1,4.37,4.37,0,0,1,.78,2.83v6.57h-1.15v-5c0-.47,0-.86,0-1.18s0-.66-.09-1a3.64,3.64,0,0,0-.21-.91,3.14,3.14,0,0,0-.38-.67,1.37,1.37,0,0,0-.59-.46,2.25,2.25,0,0,0-.85-.15,3,3,0,0,0-2,.69A3.63,3.63,0,0,0,186.94,55q0,.95,0,1.47v5.27h-1.14V56.55q0-.79,0-1.37a7,7,0,0,0-.19-1.14,2.88,2.88,0,0,0-.38-.91,1.73,1.73,0,0,0-.63-.57,2,2,0,0,0-.94-.21,3.29,3.29,0,0,0-2.11.67,3.08,3.08,0,0,0-1.1,1.83c0,.25,0,.62,0,1.09v5.78Z"/><path class="cls-3" d="M200.88,61.95a4.22,4.22,0,0,1-3.34-1.41,5.59,5.59,0,0,1-1.24-3.82,5.84,5.84,0,0,1,1.21-3.81,4,4,0,0,1,3.13-1.53,3.58,3.58,0,0,1,2.88,1.28,5.13,5.13,0,0,1,1.09,3.43c0,.06,0,.17,0,.34s0,.29,0,.36h-7.08a4.87,4.87,0,0,0,.95,3.1A3,3,0,0,0,200.91,61a5.75,5.75,0,0,0,1.73-.23,9.08,9.08,0,0,0,1.53-.66l.19.86A6.51,6.51,0,0,1,200.88,61.95Zm-3.32-6.1h5.79a4,4,0,0,0-.73-2.6,2.45,2.45,0,0,0-2-.9,2.59,2.59,0,0,0-2.1,1A4.56,4.56,0,0,0,197.56,55.85Z"/><path class="cls-3" d="M207.66,61.73V51.56h1l.16,1.57a3.8,3.8,0,0,1,1.47-1.29,4.33,4.33,0,0,1,2-.47,3.21,3.21,0,0,1,2.58,1,4.69,4.69,0,0,1,.83,3.08v6.31h-1.16V54.9A3.07,3.07,0,0,0,214,53a2.22,2.22,0,0,0-1.74-.59,3.52,3.52,0,0,0-2.26.7,3,3,0,0,0-1.1,1.8c0,.29,0,.59,0,.91v6Z"/><path class="cls-3" d="M222,61.94a2.6,2.6,0,0,1-1.87-.58,2.56,2.56,0,0,1-.59-1.89V52.4h-1.44l.08-.7,1.37-.13.31-2.33.81-.05v2.37h3v.84h-3v6.83a2.14,2.14,0,0,0,.35,1.44,1.69,1.69,0,0,0,1.24.37,6.08,6.08,0,0,0,1.43-.21l0,.89A9.6,9.6,0,0,1,222,61.94Z"/><path class="cls-3" d="M237.54,61.42a3.9,3.9,0,0,1-2,.53,3.84,3.84,0,0,1-3.5-2,7.91,7.91,0,0,1-.83-2.3,14.65,14.65,0,0,1-.27-3,10.2,10.2,0,0,1,1.18-5.38,3.79,3.79,0,0,1,3.42-1.9,3.75,3.75,0,0,1,3.4,1.9A10.34,10.34,0,0,1,240,54.65a14.88,14.88,0,0,1-.27,3,7.93,7.93,0,0,1-.82,2.3A4,4,0,0,1,237.54,61.42Zm-2.06-.54a2.6,2.6,0,0,0,2.29-1.7,10.1,10.1,0,0,0,.87-4.58,9.78,9.78,0,0,0-.87-4.5,2.4,2.4,0,0,0-4.57,0,9.76,9.76,0,0,0-.86,4.51,10.09,10.09,0,0,0,.87,4.57A2.58,2.58,0,0,0,235.48,60.88Z"/><path class="cls-5" d="M191.24,124.62l-3.94-4a.21.21,0,0,0-.29.29l4.08,4.16a.21.21,0,0,0,.29,0l4.16-4.08a.21.21,0,0,0-.29-.29Z"/><line class="cls-6" x1="191.24" y1="124.62" x2="191.24" y2="76.53"/><path class="cls-3" d="M426.91,62.44A4.22,4.22,0,0,1,423.57,61a5.59,5.59,0,0,1-1.24-3.82,5.84,5.84,0,0,1,1.21-3.81,4,4,0,0,1,3.13-1.53,3.58,3.58,0,0,1,2.88,1.28,5.13,5.13,0,0,1,1.09,3.43c0,.06,0,.17,0,.34s0,.29,0,.36h-7.08a4.87,4.87,0,0,0,.95,3.1,3,3,0,0,0,2.45,1.15,5.75,5.75,0,0,0,1.73-.23,9.08,9.08,0,0,0,1.53-.66l.19.86A6.51,6.51,0,0,1,426.91,62.44Zm-3.32-6.1h5.79a4,4,0,0,0-.73-2.6,2.45,2.45,0,0,0-2-.9,2.59,2.59,0,0,0-2.1,1A4.56,4.56,0,0,0,423.59,56.35Z"/><path class="cls-3" d="M436.25,62.43a2.6,2.6,0,0,1-1.87-.58,2.55,2.55,0,0,1-.59-1.89V48.1l1.13-.09V59.9a1.86,1.86,0,0,0,.34,1.28,1.36,1.36,0,0,0,1,.35,5.81,5.81,0,0,0,1.39-.21l0,.89A6.5,6.5,0,0,1,436.25,62.43Z"/><path class="cls-3" d="M444,62.44A4.22,4.22,0,0,1,440.62,61a5.59,5.59,0,0,1-1.24-3.82,5.84,5.84,0,0,1,1.21-3.81,4,4,0,0,1,3.13-1.53,3.58,3.58,0,0,1,2.88,1.28,5.13,5.13,0,0,1,1.09,3.43c0,.06,0,.17,0,.34s0,.29,0,.36h-7.08a4.87,4.87,0,0,0,.95,3.1A3,3,0,0,0,444,61.53a5.75,5.75,0,0,0,1.73-.23,9.08,9.08,0,0,0,1.53-.66l.19.86A6.51,6.51,0,0,1,444,62.44Zm-3.32-6.1h5.79a4,4,0,0,0-.73-2.6,2.45,2.45,0,0,0-2-.9,2.59,2.59,0,0,0-2.1,1A4.56,4.56,0,0,0,440.64,56.35Z"/><path class="cls-3" d="M450.77,62.22q0-9.22,0-10.17h1l.15,1.56a3.41,3.41,0,0,1,1.33-1.25,3.81,3.81,0,0,1,1.88-.49,2.83,2.83,0,0,1,3.06,1.92,3.66,3.66,0,0,1,3.42-1.92,3,3,0,0,1,2.45,1,4.37,4.37,0,0,1,.78,2.83v6.57h-1.15v-5c0-.47,0-.86,0-1.18s0-.66-.09-1a3.64,3.64,0,0,0-.21-.91,3.14,3.14,0,0,0-.38-.67,1.37,1.37,0,0,0-.59-.46,2.25,2.25,0,0,0-.85-.15,3,3,0,0,0-2,.69,3.63,3.63,0,0,0-1.13,1.94q0,.95,0,1.47v5.27h-1.14V57q0-.79,0-1.37a7,7,0,0,0-.19-1.14,2.88,2.88,0,0,0-.38-.91,1.73,1.73,0,0,0-.63-.57,2,2,0,0,0-.94-.21,3.29,3.29,0,0,0-2.11.67,3.08,3.08,0,0,0-1.1,1.83c0,.25,0,.62,0,1.09v5.78Z"/><path class="cls-3" d="M472.37,62.44A4.22,4.22,0,0,1,469,61a5.59,5.59,0,0,1-1.24-3.82A5.84,5.84,0,0,1,469,53.4a4,4,0,0,1,3.13-1.53A3.58,3.58,0,0,1,475,53.15a5.13,5.13,0,0,1,1.09,3.43c0,.06,0,.17,0,.34s0,.29,0,.36H469a4.87,4.87,0,0,0,.95,3.1,3,3,0,0,0,2.45,1.15,5.75,5.75,0,0,0,1.73-.23,9.08,9.08,0,0,0,1.53-.66l.19.86A6.51,6.51,0,0,1,472.37,62.44ZM469,56.35h5.79a4,4,0,0,0-.73-2.6,2.45,2.45,0,0,0-2-.9,2.59,2.59,0,0,0-2.1,1A4.56,4.56,0,0,0,469,56.35Z"/><path class="cls-3" d="M479.15,62.22V52.05h1l.16,1.57a3.8,3.8,0,0,1,1.47-1.29,4.33,4.33,0,0,1,2-.47,3.21,3.21,0,0,1,2.58,1,4.69,4.69,0,0,1,.83,3.08v6.31H486V55.39a3.07,3.07,0,0,0-.57-1.95,2.22,2.22,0,0,0-1.74-.59,3.52,3.52,0,0,0-2.26.7,3,3,0,0,0-1.1,1.8c0,.29,0,.59,0,.91v6Z"/><path class="cls-3" d="M493.46,62.43a2.6,2.6,0,0,1-1.87-.58A2.56,2.56,0,0,1,491,60V52.9h-1.44l.08-.7,1.37-.13.31-2.33.81-.05v2.37h3v.84h-3v6.83a2.14,2.14,0,0,0,.35,1.44,1.69,1.69,0,0,0,1.24.37,6.08,6.08,0,0,0,1.43-.21l0,.89A9.6,9.6,0,0,1,493.46,62.43Z"/><path class="cls-3" d="M502.54,62.22,502.27,61l4.82-5.6a13.11,13.11,0,0,0,1.41-2,3.32,3.32,0,0,0,.46-1.62,3,3,0,0,0-.62-2,2.35,2.35,0,0,0-1.86-.7,5.8,5.8,0,0,0-1.73.26,3.49,3.49,0,0,0-1.39.77l-.44-.9a5,5,0,0,1,3.6-1.11,3.9,3.9,0,0,1,2.8,1,3.38,3.38,0,0,1,1,2.56,4.48,4.48,0,0,1-.54,2.1A13.86,13.86,0,0,1,508,56.28l-4.17,4.8h6.62l-.07,1.14Z"/><path class="cls-5" d="M462.39,125.11l-3.94-4a.21.21,0,1,0-.29.29l4.08,4.16a.21.21,0,0,0,.29,0l4.16-4.08a.21.21,0,0,0-.29-.29Z"/><line class="cls-6" x1="462.39" y1="125.11" x2="462.39" y2="77.02"/><path class="cls-1" d="M577.79,152.25a3.46,3.46,0,0,1-2.3-.72,2.55,2.55,0,0,1-.86-2.07,2.71,2.71,0,0,1,.34-1.39,2.58,2.58,0,0,1,1-1,5.92,5.92,0,0,1,1.49-.57,12,12,0,0,1,2-.29l1.76-.12V145a2.55,2.55,0,0,0-.53-1.76,2.21,2.21,0,0,0-1.71-.59,6.15,6.15,0,0,0-3,.77l-.17-.4c-.09-.21-.15-.37-.19-.48a5.38,5.38,0,0,1,1.5-.62,7,7,0,0,1,1.82-.25,3.65,3.65,0,0,1,2.63.79,3.83,3.83,0,0,1,.8,2.78V152h-.9q0-.21-.13-.84c-.06-.42-.09-.64-.09-.65A3.89,3.89,0,0,1,577.79,152.25Zm0-.92a3.39,3.39,0,0,0,2.11-.7,3.27,3.27,0,0,0,1.21-1.94V147l-1.34.11a7.9,7.9,0,0,0-3.15.74,1.82,1.82,0,0,0-.88,1.67,1.7,1.7,0,0,0,.56,1.39A2.26,2.26,0,0,0,577.83,151.34Z"/><path class="cls-1" d="M585.85,152q0-9,0-10.17h.95l.07,2a4.72,4.72,0,0,1,1.39-1.48,3.09,3.09,0,0,1,1.76-.57,5.61,5.61,0,0,1,.82.06l-.08,1a4.29,4.29,0,0,0-.71-.05,2.75,2.75,0,0,0-2.17,1,3.56,3.56,0,0,0-.88,2.41V152Z"/><path class="cls-1" d="M593.24,152q0-9,0-10.17h.95l.07,2a4.72,4.72,0,0,1,1.39-1.48,3.09,3.09,0,0,1,1.76-.57,5.61,5.61,0,0,1,.82.06l-.08,1a4.29,4.29,0,0,0-.71-.05,2.75,2.75,0,0,0-2.17,1,3.56,3.56,0,0,0-.88,2.41V152Z"/><path class="cls-1" d="M603.22,152.25a3.46,3.46,0,0,1-2.3-.72,2.55,2.55,0,0,1-.86-2.07,2.71,2.71,0,0,1,.34-1.39,2.58,2.58,0,0,1,1-1,5.92,5.92,0,0,1,1.49-.57,12,12,0,0,1,2-.29l1.76-.12V145a2.55,2.55,0,0,0-.53-1.76,2.21,2.21,0,0,0-1.71-.59,6.15,6.15,0,0,0-3,.77l-.17-.4c-.09-.21-.15-.37-.19-.48a5.38,5.38,0,0,1,1.5-.62,7,7,0,0,1,1.82-.25,3.65,3.65,0,0,1,2.63.79,3.83,3.83,0,0,1,.8,2.78V152h-.9q0-.21-.13-.84c-.06-.42-.09-.64-.09-.65A3.89,3.89,0,0,1,603.22,152.25Zm0-.92a3.39,3.39,0,0,0,2.11-.7,3.27,3.27,0,0,0,1.21-1.94V147l-1.34.11a7.9,7.9,0,0,0-3.15.74,1.82,1.82,0,0,0-.88,1.67,1.7,1.7,0,0,0,.56,1.39A2.26,2.26,0,0,0,603.26,151.34Z"/><path class="cls-1" d="M610.8,156.86a4.19,4.19,0,0,1-.79-.07l-.08-.95h.64a3.13,3.13,0,0,0,1.75-.4,3.3,3.3,0,0,0,1-1.56l.29-.8q.24-.64.37-1L610,141.86h1.21l3.46,9.15.42-1.28q2.55-8,2.62-8s0,0,0,.09h1.21l-4.25,11.95a6.07,6.07,0,0,1-1.5,2.29A3.37,3.37,0,0,1,610.8,156.86Z"/><path class="cls-7" d="M517,146.24l4-3.94a.21.21,0,0,0-.29-.29l-4.16,4.08a.21.21,0,0,0,0,.29l4.08,4.16a.21.21,0,0,0,.29-.29Z"/><line class="cls-7" x1="517.04" y1="146.24" x2="565.13" y2="146.24"/><path class="cls-8" d="M234.32,165.49l3.94,4a.21.21,0,1,0,.29-.29l-4.08-4.16a.21.21,0,0,0-.29,0L230,169.13a.21.21,0,1,0,.29.29Z"/><line class="cls-8" x1="234.32" y1="165.49" x2="234.32" y2="213.57"/><path class="cls-4" d="M376,236V225.21h1l.16,1.67a3.9,3.9,0,0,1,1.47-1.37,4.13,4.13,0,0,1,2-.5,3.11,3.11,0,0,1,2.58,1,5.24,5.24,0,0,1,.83,3.28V236h-1.16v-7.27a3.42,3.42,0,0,0-.58-2.07,2.14,2.14,0,0,0-1.73-.63,3.38,3.38,0,0,0-2.26.74,3.21,3.21,0,0,0-1.1,1.92c0,.31,0,.63,0,1V236Z"/><path class="cls-4" d="M391.58,236.28a4.11,4.11,0,0,1-3.34-1.5,6.2,6.2,0,0,1-1.24-4.07,6.49,6.49,0,0,1,1.21-4.06,3.91,3.91,0,0,1,3.13-1.63,3.5,3.5,0,0,1,2.88,1.36A5.7,5.7,0,0,1,395.3,230c0,.06,0,.18,0,.36s0,.31,0,.38h-7.08a5.42,5.42,0,0,0,.95,3.31,2.93,2.93,0,0,0,2.45,1.22,5.43,5.43,0,0,0,1.73-.25,8.77,8.77,0,0,0,1.53-.7l.19.92A6.21,6.21,0,0,1,391.58,236.28Zm-3.32-6.49H394a4.51,4.51,0,0,0-.73-2.77,2.39,2.39,0,0,0-2-1,2.53,2.53,0,0,0-2.1,1A5,5,0,0,0,388.26,229.79Z"/><path class="cls-4" d="M401.33,236.29a6.49,6.49,0,0,1-1.85-.26,4.71,4.71,0,0,1-1.36-.61l.17-1a6,6,0,0,0,2.93.85q2.51,0,2.61-2a1.7,1.7,0,0,0-.51-1.3,6,6,0,0,0-2-1l-.88-.33q-2.38-.77-2.4-2.74a2.67,2.67,0,0,1,.94-2,3.59,3.59,0,0,1,2.55-.87,6.93,6.93,0,0,1,3,.67l-.39.91a7.19,7.19,0,0,0-2.65-.57,2.57,2.57,0,0,0-1.69.51,1.71,1.71,0,0,0-.62,1.38,1.49,1.49,0,0,0,.4,1.12,4.1,4.1,0,0,0,1.6.75l.48.18.39.15a5.12,5.12,0,0,1,2.24,1.24,2.84,2.84,0,0,1,.64,2,2.75,2.75,0,0,1-1,2.21A4,4,0,0,1,401.33,236.29Z"/><path class="cls-4" d="M410.74,236.27a2.5,2.5,0,0,1-1.87-.62,2.84,2.84,0,0,1-.59-2v-7.53h-1.44l.08-.74,1.37-.14.31-2.48.81-.06v2.52h3v.9h-3v7.27a2.39,2.39,0,0,0,.35,1.54,1.63,1.63,0,0,0,1.24.39,5.71,5.71,0,0,0,1.43-.23l0,.95A9,9,0,0,1,410.74,236.27Z"/><path class="cls-4" d="M419,236.28a4.11,4.11,0,0,1-3.34-1.5,6.2,6.2,0,0,1-1.24-4.07,6.49,6.49,0,0,1,1.21-4.06,3.91,3.91,0,0,1,3.13-1.63,3.5,3.5,0,0,1,2.88,1.36,5.7,5.7,0,0,1,1.09,3.66c0,.06,0,.18,0,.36s0,.31,0,.38h-7.08a5.42,5.42,0,0,0,.95,3.31,2.93,2.93,0,0,0,2.45,1.22,5.43,5.43,0,0,0,1.73-.25,8.77,8.77,0,0,0,1.53-.7l.19.92A6.21,6.21,0,0,1,419,236.28Zm-3.32-6.49h5.79a4.51,4.51,0,0,0-.73-2.77,2.39,2.39,0,0,0-2-1,2.53,2.53,0,0,0-2.1,1A5,5,0,0,0,415.71,229.79Z"/><path class="cls-4" d="M429.65,236.27a3.75,3.75,0,0,1-3.17-1.5,6.74,6.74,0,0,1-1.14-4.15,6.54,6.54,0,0,1,1.17-4,3.69,3.69,0,0,1,3.09-1.56,4.48,4.48,0,0,1,1.89.44,3,3,0,0,1,1.44,1.35V221l1.11-.11V236h-1l-.17-1.63a3.47,3.47,0,0,1-1.43,1.39A4,4,0,0,1,429.65,236.27Zm0-1a3.24,3.24,0,0,0,1.51-.34,2.65,2.65,0,0,0,1-.95,4.59,4.59,0,0,0,.58-1.41,7.59,7.59,0,0,0,.19-1.76q0-4.83-3.34-4.83a2.45,2.45,0,0,0-1.39.4,2.79,2.79,0,0,0-1,1.08,5.83,5.83,0,0,0-.51,1.47,8.14,8.14,0,0,0-.17,1.67,9.43,9.43,0,0,0,.1,1.43,6.1,6.1,0,0,0,.33,1.27,3.85,3.85,0,0,0,.58,1,2.45,2.45,0,0,0,.86.68A2.64,2.64,0,0,0,429.62,235.3Z"/><path class="cls-4" d="M383.32,260.56a3.32,3.32,0,0,1-2.3-.77,2.81,2.81,0,0,1-.86-2.21,3,3,0,0,1,.34-1.48,2.66,2.66,0,0,1,1-1,5.68,5.68,0,0,1,1.49-.61,11.49,11.49,0,0,1,2-.31l1.76-.13v-1.21a2.83,2.83,0,0,0-.53-1.87,2.13,2.13,0,0,0-1.71-.63,5.87,5.87,0,0,0-3,.82l-.17-.43q-.13-.33-.19-.51a5.23,5.23,0,0,1,1.5-.66,6.49,6.49,0,0,1,1.82-.27,3.51,3.51,0,0,1,2.63.83,4.27,4.27,0,0,1,.8,3v7.23h-.9c0-.15-.08-.45-.13-.9s-.09-.68-.09-.69A3.82,3.82,0,0,1,383.32,260.56Zm0-1a3.26,3.26,0,0,0,2.11-.75,3.51,3.51,0,0,0,1.21-2.07v-1.85l-1.35.12a7.49,7.49,0,0,0-3.15.79,2,2,0,0,0-.88,1.78,1.87,1.87,0,0,0,.56,1.48A2.17,2.17,0,0,0,383.35,259.58Z"/><path class="cls-4" d="M391.37,260.32q0-9.54,0-10.83h.95l.07,2.13a4.91,4.91,0,0,1,1.39-1.58,3,3,0,0,1,1.76-.61,5.37,5.37,0,0,1,.82.07l-.08,1a4.08,4.08,0,0,0-.71-.06,2.69,2.69,0,0,0-2.17,1.08,4,4,0,0,0-.88,2.56v6.21Z"/><path class="cls-4" d="M398.76,260.32q0-9.54,0-10.83h.95l.07,2.13a4.91,4.91,0,0,1,1.39-1.58,3,3,0,0,1,1.76-.61,5.37,5.37,0,0,1,.82.07l-.08,1a4.08,4.08,0,0,0-.71-.06,2.69,2.69,0,0,0-2.17,1.08,4,4,0,0,0-.88,2.56v6.21Z"/><path class="cls-4" d="M408.74,260.56a3.32,3.32,0,0,1-2.3-.77,2.81,2.81,0,0,1-.86-2.21,3,3,0,0,1,.34-1.48,2.66,2.66,0,0,1,1-1,5.68,5.68,0,0,1,1.49-.61,11.49,11.49,0,0,1,2-.31l1.76-.13v-1.21a2.83,2.83,0,0,0-.53-1.87,2.13,2.13,0,0,0-1.71-.63,5.87,5.87,0,0,0-3,.82l-.17-.43q-.13-.33-.19-.51a5.23,5.23,0,0,1,1.5-.66,6.49,6.49,0,0,1,1.82-.27,3.51,3.51,0,0,1,2.63.83,4.27,4.27,0,0,1,.8,3v7.23h-.9c0-.15-.08-.45-.13-.9s-.09-.68-.09-.69A3.82,3.82,0,0,1,408.74,260.56Zm0-1a3.26,3.26,0,0,0,2.11-.75,3.51,3.51,0,0,0,1.21-2.07v-1.85l-1.35.12a7.49,7.49,0,0,0-3.15.79,2,2,0,0,0-.88,1.78,1.87,1.87,0,0,0,.56,1.48A2.17,2.17,0,0,0,408.78,259.58Z"/><path class="cls-4" d="M416.32,265.46a4,4,0,0,1-.79-.08l-.08-1,.27,0h.37a3,3,0,0,0,1.75-.42,3.54,3.54,0,0,0,1-1.66l.29-.85.37-1.08-4.06-10.9h1.21l3.46,9.74.42-1.36q2.55-8.49,2.62-8.48s0,0,0,.1h1.21l-4.25,12.73a6.54,6.54,0,0,1-1.5,2.44A3.25,3.25,0,0,1,416.32,265.46Z"/><path class="cls-4" d="M432.87,260.32v-13.4a6.88,6.88,0,0,1-.94.56,11.11,11.11,0,0,1-1.28.57V247a15,15,0,0,0,2.44-1.37h1v14.7Z"/><path class="cls-8" d="M406.75,165.49l3.94,4a.21.21,0,1,0,.29-.29l-4.08-4.16a.21.21,0,0,0-.29,0l-4.16,4.08a.21.21,0,1,0,.29.29Z"/><line class="cls-8" x1="406.75" y1="165.49" x2="406.75" y2="213.57"/><polygon class="cls-1" points="665.45 160.21 698.86 140.42 665.45 120.63 665.45 134.12 638.98 134.12 638.98 146.53 665.45 146.53 665.45 160.21"/><rect class="cls-8" x="860.37" y="155.98" width="290.72" height="99.18"/></g></g></svg>